<?xml version="1.0" encoding="utf-8"?>
<!-- Generator: Adobe Illustrator 24.1.3, SVG Export Plug-In . SVG Version: 6.00 Build 0)  -->
<svg version="1.1" id="Layer_1" xmlns="http://www.w3.org/2000/svg" xmlns:xlink="http://www.w3.org/1999/xlink" x="0px" y="0px"
	 viewBox="0 0 32.6 32.5" style="enable-background:new 0 0 32.6 32.5;" xml:space="preserve">
<style type="text/css">
	.st0{fill:#FFFFFF;}
</style>
<path id="Path_193" class="st0" d="M8.1,0.8l3.6,6.5c0.3,0.5,0.2,1.1-0.2,1.5l-3.2,3C8,12.1,7.8,12.6,7.9,13c0.3,1,1.2,3,4,6.1
	c2,2.2,4.4,3.9,7,5.2c0.3,0.2,0.7,0.1,1-0.2l2.8-2.5c0.5-0.4,1.2-0.6,1.8-0.3l7.2,2.6c0.4,0.1,0.6,0.5,0.7,0.9l0.1,2.1
	c0,0.3,0,0.7-0.2,1c-2.2,4.7-7.6,4.8-9.7,4.6c-0.5,0-1-0.2-1.5-0.3c-4.7-1.8-9.1-4.6-12.7-8.1c0,0-6.8-6.8-8.4-14.5C0,8.8,0,8,0,7.3
	C0.2,5,1.2,0.6,6.6,0C7.2-0.1,7.8,0.3,8.1,0.8"/>
</svg>
