<?xml version="1.0" encoding="utf-8"?>
<!-- Generator: Adobe Illustrator 24.1.3, SVG Export Plug-In . SVG Version: 6.00 Build 0)  -->
<svg version="1.1" id="Layer_1" xmlns="http://www.w3.org/2000/svg" xmlns:xlink="http://www.w3.org/1999/xlink" x="0px" y="0px"
	 viewBox="0 0 40.1 16.6" style="enable-background:new 0 0 40.1 16.6;" xml:space="preserve">
<style type="text/css">
	.st0{fill:#FFFFFF;}
</style>
<path id="Path_195" class="st0" d="M36.8,16.1L29.6,14c-0.6-0.2-0.9-0.7-0.9-1.3l0.1-4.4c0-0.4-0.2-0.8-0.6-1
	c-0.9-0.5-3-1.3-7.1-1.5c-2.9-0.1-5.9,0.3-8.7,1.3c-0.3,0.1-0.6,0.4-0.6,0.8l-0.2,3.8c0,0.6-0.4,1.2-1,1.5l-7,3.2
	c-0.4,0.2-0.8,0.1-1.1-0.2L1,15c-0.2-0.2-0.4-0.5-0.6-0.8C-1.3,9.3,2.4,5.4,4,4.1c0.4-0.3,0.8-0.6,1.3-0.8C10,1.2,15,0.1,20.1,0
	c0,0,9.6-0.1,16.2,4.4c0.6,0.4,1.2,0.9,1.6,1.4c1.5,1.7,3.9,5.6,0.5,9.8C38,16.1,37.4,16.3,36.8,16.1"/>
</svg>
