<?xml version="1.0" encoding="utf-8"?>
<!-- Generator: Adobe Illustrator 24.1.3, SVG Export Plug-In . SVG Version: 6.00 Build 0)  -->
<svg version="1.1" id="Layer_1" xmlns="http://www.w3.org/2000/svg" xmlns:xlink="http://www.w3.org/1999/xlink" x="0px" y="0px"
	 viewBox="0 0 36.2 27.8" style="enable-background:new 0 0 36.2 27.8;" xml:space="preserve">
<style type="text/css">
	.st0{fill:#FFFFFF;}
</style>
<g>
	<path class="st0" d="M35,26.9L33.8,26c-0.8-0.6-1.6-1.2-2.3-1.8c-1.6-1.2-3.1-2.4-4.6-3.7l-1.2-0.9l-1.1-0.9
		c-0.8-0.6-1.5-1.2-2.3-1.9c-0.8-0.6-1.5-1.3-2.3-1.9l-0.3-0.2l-1.2,1L18.1,16l-0.4-0.3l-1.2-1l-0.3,0.2l-2.3,1.9
		c-0.8,0.6-1.5,1.3-2.3,1.9l-1.1,0.9l-1.2,0.9c-1.5,1.2-3.1,2.5-4.6,3.7c-0.8,0.6-1.6,1.2-2.3,1.8l-1.2,0.9
		c-0.4,0.3-0.8,0.6-1.2,0.9v0h36.2v0C35.8,27.5,35.4,27.2,35,26.9z"/>
	<path class="st0" d="M2.2,25.8c0.7-0.7,1.4-1.3,2.2-2c1.5-1.3,2.9-2.6,4.4-3.9l1.1-1l1.1-1c0.7-0.6,1.5-1.3,2.2-1.9l2.2-1.9
		l0.1-0.1l-0.1-0.1c-0.7-0.6-1.5-1.3-2.2-1.9c-0.7-0.6-1.5-1.3-2.2-1.9L9.8,9L8.7,8C7.3,6.7,5.8,5.4,4.3,4C3.6,3.4,2.9,2.7,2.2,2
		L1.1,1C0.7,0.7,0.4,0.3,0,0c0.4,0.3,0.8,0.6,1.2,0.9l1.2,0.9C3.2,2.4,3.9,3,4.7,3.6C6.3,4.8,7.8,6,9.3,7.3l1.1,0.9l1.1,0.9
		c0.8,0.6,1.5,1.2,2.3,1.9c0.8,0.6,1.5,1.3,2.3,1.9l0.3,0.2l0.9,0.8l0.6,0.5l0.6-0.5l0.9-0.8l0.3-0.2l2.3-1.9
		c0.8-0.6,1.5-1.3,2.3-1.9l1.1-0.9l1.2-0.9c1.5-1.2,3.1-2.5,4.6-3.7C32.2,3,33,2.4,33.8,1.8L35,0.9c0.4-0.3,0.8-0.6,1.2-0.9v0H0
		v27.8c0.4-0.3,0.7-0.7,1.1-1L2.2,25.8z"/>
	<path class="st0" d="M31.8,4c-1.5,1.3-2.9,2.6-4.4,3.9l-1.1,1l-1.1,1c-0.7,0.7-1.5,1.3-2.2,1.9l-2.2,1.9l-0.1,0.1l0.1,0.1
		c0.7,0.6,1.5,1.3,2.2,1.9c0.7,0.6,1.5,1.3,2.2,1.9l1.1,1l1.1,1c1.5,1.3,2.9,2.6,4.4,3.9c0.7,0.7,1.5,1.3,2.2,2l1.1,1
		c0.4,0.3,0.7,0.7,1.1,1V0c-0.4,0.3-0.7,0.7-1.1,1L34,2C33.3,2.7,32.6,3.4,31.8,4z"/>
</g>
</svg>
