<?xml version="1.0" encoding="utf-8"?>
<!-- Generator: Adobe Illustrator 24.1.3, SVG Export Plug-In . SVG Version: 6.00 Build 0)  -->
<svg version="1.1" id="Layer_1" xmlns="http://www.w3.org/2000/svg" xmlns:xlink="http://www.w3.org/1999/xlink" x="0px" y="0px"
	 viewBox="0 0 171.6 55.4" style="enable-background:new 0 0 171.6 55.4;" xml:space="preserve">
<style type="text/css">
	.st0{enable-background:new    ;}
	.st1{fill:#FFFFFF;}
</style>
<g class="st0">
	<path class="st1" d="M11.4,55.4c-2.1,0-4-0.5-5.7-1.5c-1.7-1-3.1-2.4-4.1-4.1C0.5,48.1,0,46.1,0,44V11.4c0-2.1,0.5-4,1.5-5.7
		c1-1.7,2.4-3.1,4.1-4.1C7.4,0.5,9.3,0,11.4,0h43.9v12H14.5c-0.8,0-1.5,0.2-1.9,0.6c-0.4,0.4-0.7,1.1-0.7,1.9v26.3
		c0,0.8,0.2,1.5,0.7,1.9c0.4,0.4,1.1,0.7,1.9,0.7h40.8v12H11.4z"/>
	<path class="st1" d="M60.4,55.4V0h51.2v12H72.5v9.7h31.5v12H72.5v9.7h39.1v12H60.4z"/>
	<path class="st1" d="M116.1,55.4V0.1h44c2.1,0,4,0.5,5.7,1.5c1.7,1,3.1,2.4,4.2,4.2c1.1,1.7,1.6,3.6,1.6,5.7v14.3
		c0,2.1-0.5,4-1.6,5.7c-1.1,1.7-2.4,3.1-4.2,4.2c-1.7,1-3.6,1.5-5.7,1.5l-32,0.1v18.2H116.1z M159.5,25.2V12H128v13.2H159.5z
		 M159.2,55.4l-16.1-19.2h15.6l12.8,15.1v4.1H159.2z"/>
</g>
</svg>
