<?xml version="1.0" encoding="UTF-8"?>
<svg id="Layer_1" xmlns="http://www.w3.org/2000/svg" version="1.1" viewBox="0 0 636 636">
  <!-- Generator: Adobe Illustrator 30.2.1, SVG Export Plug-In . SVG Version: 2.1.1 Build 1)  -->
  <path d="M636,381.8v-128l-92.7-12.6c-3.3-9.8-7.3-19.3-11.9-28.5l56.5-74.4-90.5-90.5-74.5,56.6c-9.2-4.5-18.7-8.5-28.6-11.8L381.8,0h-128l-12.6,92.7c-9.8,3.3-19.3,7.3-28.5,11.9l-74.4-56.5-90.5,90.5,56.6,74.5c-4.5,9.2-8.5,18.7-11.8,28.6L0,254.2v128l92.7,12.6c3.3,9.8,7.3,19.3,11.9,28.5l-56.5,74.4,90.5,90.5,74.5-56.6c9.2,4.5,18.7,8.5,28.6,11.8l12.6,92.5h128l12.6-92.7c9.8-3.3,19.3-7.3,28.5-11.9l74.4,56.5,90.5-90.5-56.6-74.5c4.5-9.2,8.5-18.7,11.8-28.6l92.5-12.6ZM318,461c-79,0-143-64-143-143s64-143,143-143,143,64,143,143-64,143-143,143Z" style="fill: #fff;"/>
</svg>