<?xml version="1.0" encoding="utf-8"?>
<!-- Generator: Adobe Illustrator 24.1.3, SVG Export Plug-In . SVG Version: 6.00 Build 0)  -->
<svg version="1.1" id="Layer_1" xmlns="http://www.w3.org/2000/svg" xmlns:xlink="http://www.w3.org/1999/xlink" x="0px" y="0px"
	 viewBox="0 0 104.5 134" style="enable-background:new 0 0 104.5 134;" xml:space="preserve">
<style type="text/css">
	.st0{fill:#373F51;}
</style>
<g>
	<path class="st0" d="M38.4,15.6c-1.6,0-2.7-0.4-3.7-1.4l0.8-0.8c0.9,0.9,1.7,1.2,2.9,1.2c1.6,0,2.5-0.7,2.5-2c0-0.6-0.2-1-0.5-1.3
		c-0.3-0.3-0.6-0.4-1.4-0.5l-1.2-0.2c-0.8-0.1-1.5-0.4-2-0.8c-0.5-0.5-0.8-1.1-0.8-2c0-1.8,1.3-3,3.4-3c1.4,0,2.3,0.3,3.2,1.2
		l-0.7,0.7c-0.7-0.6-1.4-0.9-2.5-0.9c-1.4,0-2.3,0.8-2.3,2c0,0.5,0.1,0.9,0.5,1.2c0.3,0.3,0.9,0.5,1.4,0.6l1.2,0.2
		c1,0.1,1.5,0.4,1.9,0.8c0.6,0.5,0.9,1.2,0.9,2.1C42.1,14.4,40.6,15.6,38.4,15.6z"/>
	<path class="st0" d="M44.9,12.1c0,1.6,0.8,2.5,2.2,2.5c0.9,0,1.4-0.3,1.9-0.8l0.7,0.6c-0.8,0.8-1.4,1.1-2.7,1.1
		c-2,0-3.2-1.2-3.2-3.8c0-2.4,1.2-3.8,3-3.8c1.9,0,3,1.4,3,3.6v0.5H44.9z M48.6,10c-0.3-0.7-0.9-1.1-1.7-1.1c-0.8,0-1.4,0.4-1.7,1.1
		c-0.2,0.4-0.2,0.6-0.2,1.2h3.9C48.8,10.7,48.8,10.4,48.6,10z"/>
	<path class="st0" d="M56.9,15.5v-4.5c0-1.3-0.7-2-1.8-2s-1.8,0.7-1.8,2v4.5h-1.1V8.1h1.1v0.8C53.8,8.3,54.5,8,55.3,8
		c0.8,0,1.4,0.2,1.9,0.7c0.5,0.5,0.8,1.2,0.8,2.1v4.7H56.9z"/>
	<path class="st0" d="M62.7,15.5c-1.3,0-1.9-0.9-1.9-2V9h-0.9V8.1h0.9V5.8h1.1v2.3h1.6V9h-1.6v4.5c0,0.7,0.3,1.1,1,1.1h0.6v0.9H62.7
		z"/>
	<path class="st0" d="M69.3,6V4.8h1.2V6H69.3z M69.3,15.5V8.1h1.1v7.4H69.3z"/>
	<path class="st0" d="M75.2,15.5c-1.3,0-1.9-0.9-1.9-2V9h-0.9V8.1h0.9V5.8h1.1v2.3H76V9h-1.6v4.5c0,0.7,0.3,1.1,1,1.1H76v0.9H75.2z"
		/>
	<path class="st0" d="M78.7,12.1c0,1.6,0.8,2.5,2.2,2.5c0.9,0,1.3-0.3,1.9-0.8l0.7,0.6c-0.8,0.8-1.4,1.1-2.7,1.1
		c-2,0-3.2-1.2-3.2-3.8c0-2.4,1.2-3.8,3-3.8c1.9,0,3,1.4,3,3.6v0.5H78.7z M82.3,10c-0.3-0.7-0.9-1.1-1.7-1.1c-0.8,0-1.4,0.4-1.7,1.1
		c-0.2,0.4-0.2,0.6-0.2,1.2h3.9C82.5,10.7,82.5,10.4,82.3,10z"/>
	<path class="st0" d="M95.4,15.5v-4.5c0-1.3-0.7-2-1.8-2c-1.1,0-1.8,0.7-1.8,1.8v4.7h-1.1v-4.5c0-1.3-0.7-2-1.8-2s-1.8,0.7-1.8,2
		v4.5h-1.1V8.1H87v0.8C87.5,8.3,88.3,8,89.1,8c1,0,1.8,0.4,2.3,1.2C91.9,8.4,92.8,8,93.8,8c0.8,0,1.5,0.3,1.9,0.7
		c0.5,0.5,0.8,1.2,0.8,2.1v4.7H95.4z"/>
	<path class="st0" d="M101.5,15.6c-1.2,0-2.2-0.3-3-1.1l0.7-0.7c0.6,0.6,1.4,0.9,2.3,0.9c1.2,0,2-0.4,2-1.3c0-0.6-0.4-1-1.2-1.1
		l-1.2-0.1c-1.4-0.1-2.2-0.8-2.2-2c0-1.4,1.1-2.2,2.7-2.2c1.1,0,2,0.3,2.7,0.8l-0.7,0.7c-0.5-0.4-1.2-0.6-2-0.6
		c-1.1,0-1.6,0.5-1.6,1.2c0,0.6,0.4,1,1.3,1.1l1.2,0.1c1.3,0.1,2.2,0.6,2.2,2C104.5,14.7,103.2,15.6,101.5,15.6z"/>
	<path class="st0" d="M42,52.5c-0.6,0.6-1.6,1-2.7,1h-3.7V42.8h3.7c1.1,0,2.1,0.3,2.7,1c1.1,1.1,1,2.7,1,4.2
		C43,49.5,43.1,51.4,42,52.5z M41.2,44.6c-0.6-0.6-1.3-0.8-2.1-0.8h-2.3v8.6h2.3c0.8,0,1.5-0.2,2.1-0.8c0.7-0.8,0.7-2.4,0.7-3.7
		C41.9,46.7,41.9,45.4,41.2,44.6z"/>
	<path class="st0" d="M49.6,47.5c-0.4-0.4-0.7-0.5-1.3-0.5c-1.1,0-1.8,0.9-1.8,2v4.5h-1.1v-7.4h1.1V47c0.4-0.6,1.2-1,2.1-1
		c0.7,0,1.2,0.2,1.8,0.7L49.6,47.5z"/>
	<path class="st0" d="M55.9,53.5v-0.7c-0.6,0.6-1.1,0.8-2.1,0.8c-1,0-1.6-0.2-2.1-0.7c-0.4-0.4-0.6-0.9-0.6-1.5
		c0-1.3,0.9-2.1,2.5-2.1h2.2v-0.7c0-1.1-0.5-1.6-1.9-1.6c-0.9,0-1.4,0.2-1.9,0.8l-0.7-0.7C52,46.3,52.8,46,54,46c2,0,3,0.9,3,2.5v5
		H55.9z M55.9,50.1h-2.1c-1.1,0-1.6,0.4-1.6,1.3s0.5,1.3,1.7,1.3c0.6,0,1.2,0,1.6-0.5c0.3-0.2,0.4-0.7,0.4-1.3V50.1z"/>
	<path class="st0" d="M60.9,47v6.5h-1.1V47h-0.9v-0.8h0.9v-1.4c0-1.1,0.6-2,1.9-2h0.8v0.9h-0.6c-0.7,0-1,0.4-1,1.1v1.4h1.6V47H60.9z
		"/>
	<path class="st0" d="M66.4,53.5c-1.3,0-1.9-0.9-1.9-2V47h-0.9v-0.8h0.9v-2.3h1.1v2.3h1.6V47h-1.6v4.5c0,0.7,0.3,1.1,1,1.1h0.6v0.9
		H66.4z"/>
	<path class="st0" d="M71.6,53.6c-1.2,0-2.2-0.3-3-1.1l0.7-0.7c0.6,0.6,1.4,0.9,2.3,0.9c1.2,0,2-0.4,2-1.3c0-0.6-0.4-1-1.2-1.1
		l-1.2-0.1c-1.4-0.1-2.2-0.8-2.2-2c0-1.4,1.1-2.2,2.7-2.2c1,0,2,0.3,2.7,0.8l-0.7,0.7c-0.5-0.4-1.2-0.6-2-0.6
		c-1.1,0-1.6,0.5-1.6,1.2c0,0.6,0.4,1,1.3,1.1l1.2,0.1c1.3,0.1,2.2,0.6,2.2,2C74.6,52.7,73.4,53.6,71.6,53.6z"/>
	<path class="st0" d="M38.4,91.6c-1.6,0-2.7-0.4-3.7-1.4l0.8-0.8c0.9,0.9,1.7,1.2,2.9,1.2c1.6,0,2.5-0.7,2.5-2c0-0.6-0.2-1-0.5-1.3
		c-0.3-0.3-0.6-0.4-1.4-0.5l-1.2-0.2c-0.8-0.1-1.5-0.4-2-0.8c-0.5-0.5-0.8-1.1-0.8-2c0-1.8,1.3-3,3.4-3c1.4,0,2.3,0.3,3.2,1.2
		l-0.7,0.7c-0.7-0.6-1.4-0.9-2.5-0.9c-1.4,0-2.3,0.8-2.3,2c0,0.5,0.1,0.9,0.5,1.2c0.3,0.3,0.9,0.5,1.4,0.6l1.2,0.2
		c1,0.1,1.5,0.4,1.9,0.8c0.6,0.5,0.9,1.2,0.9,2.1C42.1,90.4,40.6,91.6,38.4,91.6z"/>
	<path class="st0" d="M49.2,90.9c-0.4,0.4-1.1,0.6-1.8,0.6c-0.8,0-1.5-0.2-2.1-1v4.2h-1.1V84.1h1.1V85c0.6-0.8,1.3-1,2.1-1
		c0.8,0,1.4,0.3,1.8,0.6c0.8,0.8,0.9,2,0.9,3.1C50.1,88.9,50,90.2,49.2,90.9z M47.2,85c-1.6,0-1.9,1.4-1.9,2.8s0.3,2.8,1.9,2.8
		c1.6,0,1.8-1.4,1.8-2.8S48.8,85,47.2,85z"/>
	<path class="st0" d="M56.6,91.5v-0.7c-0.6,0.6-1.1,0.8-2.1,0.8c-1,0-1.6-0.2-2.1-0.7c-0.4-0.4-0.6-0.9-0.6-1.5
		c0-1.3,0.9-2.1,2.5-2.1h2.2v-0.7c0-1.1-0.5-1.6-1.9-1.6c-0.9,0-1.4,0.2-1.9,0.8l-0.7-0.7c0.7-0.9,1.4-1.1,2.6-1.1c2,0,3,0.9,3,2.5
		v5H56.6z M56.6,88.1h-2.1c-1.1,0-1.6,0.4-1.6,1.3s0.5,1.3,1.7,1.3c0.6,0,1.2,0,1.6-0.5c0.3-0.2,0.4-0.7,0.4-1.3V88.1z"/>
	<path class="st0" d="M69.8,91.5v-4.5c0-1.3-0.7-2-1.8-2c-1.1,0-1.8,0.7-1.8,1.8v4.7H65v-4.5c0-1.3-0.7-2-1.8-2s-1.8,0.7-1.8,2v4.5
		h-1.1v-7.4h1.1v0.8c0.5-0.6,1.3-0.9,2.1-0.9c1,0,1.8,0.4,2.3,1.2c0.6-0.8,1.4-1.2,2.4-1.2c0.8,0,1.5,0.3,1.9,0.7
		c0.5,0.5,0.8,1.2,0.8,2.1v4.7H69.8z"/>
	<path class="st0" d="M38.8,119.8v9.7h-1.1v-9.7h-3.1v-1h7.3v1H38.8z"/>
	<path class="st0" d="M47,123.5c-0.4-0.4-0.7-0.5-1.3-0.5c-1.1,0-1.8,0.9-1.8,2v4.5h-1.1v-7.4h1.1v0.9c0.4-0.6,1.2-1,2.1-1
		c0.7,0,1.2,0.2,1.8,0.7L47,123.5z"/>
	<path class="st0" d="M53.2,129.5v-0.7c-0.6,0.6-1.1,0.8-2.1,0.8c-1,0-1.6-0.2-2.1-0.7c-0.4-0.4-0.6-0.9-0.6-1.5
		c0-1.3,0.9-2.1,2.5-2.1h2.2v-0.7c0-1.1-0.5-1.6-1.9-1.6c-0.9,0-1.4,0.2-1.9,0.8l-0.7-0.7c0.7-0.9,1.4-1.1,2.6-1.1c2,0,3,0.9,3,2.5
		v5H53.2z M53.2,126.1h-2.1c-1.1,0-1.6,0.5-1.6,1.3c0,0.9,0.5,1.3,1.7,1.3c0.6,0,1.2,0,1.6-0.5c0.3-0.2,0.4-0.7,0.4-1.3V126.1z"/>
	<path class="st0" d="M59.2,129.6c-1.2,0-2.2-0.3-3-1.1l0.7-0.7c0.6,0.6,1.4,0.9,2.3,0.9c1.2,0,2-0.4,2-1.3c0-0.6-0.4-1-1.2-1.1
		l-1.2-0.1c-1.4-0.1-2.2-0.8-2.2-2c0-1.4,1.1-2.2,2.7-2.2c1,0,2,0.3,2.7,0.8l-0.7,0.7c-0.5-0.4-1.2-0.6-2-0.6
		c-1.1,0-1.6,0.5-1.6,1.2c0,0.6,0.4,1,1.3,1.1l1.2,0.1c1.3,0.1,2.2,0.6,2.2,2C62.2,128.7,61,129.6,59.2,129.6z"/>
	<path class="st0" d="M69.1,129.5v-4.6c0-1.3-0.7-2-1.8-2s-1.8,0.7-1.8,2v4.6h-1.1v-10.7h1.1v4.1c0.5-0.6,1.2-0.9,2.1-0.9
		c1.7,0,2.7,1.1,2.7,2.7v4.7H69.1z"/>
</g>
<g>
	<path class="st0" d="M19.5,56.8l-0.7-0.4c-0.4-0.3-0.9-0.6-1.3-0.9c-0.9-0.6-1.7-1.2-2.6-1.7l-0.6-0.4l-0.6-0.4
		c-0.4-0.3-0.8-0.6-1.3-0.9c-0.4-0.3-0.8-0.6-1.3-0.9L11,51l-0.7,0.5l-0.2,0.2l-0.2-0.2L9.3,51l-0.2,0.1L7.9,52
		c-0.4,0.3-0.8,0.6-1.3,0.9L6,53.3l-0.6,0.4c-0.8,0.6-1.7,1.2-2.6,1.7c-0.4,0.3-0.9,0.6-1.3,0.9l-0.7,0.4c-0.2,0.1-0.4,0.3-0.7,0.4
		v0h20v0C19.9,57.1,19.7,56.9,19.5,56.8z"/>
	<path class="st0" d="M0.1,44.1c0.2-0.1,0.4-0.3,0.7-0.4l0.7-0.4c0.4-0.3,0.9-0.6,1.3-0.9c0.9-0.6,1.7-1.2,2.6-1.7L6,40.2l0.6-0.4
		c0.4-0.3,0.8-0.6,1.3-0.9c0.4-0.3,0.8-0.6,1.3-0.9l0.2-0.1l0.5-0.4l0.4-0.3l0.4,0.3l0.5,0.4l0.2,0.1l1.3,0.9
		c0.4,0.3,0.8,0.6,1.3,0.9l0.6,0.4l0.6,0.4c0.8,0.6,1.7,1.2,2.6,1.7c0.4,0.3,0.9,0.6,1.3,0.9l0.7,0.4c0.2,0.1,0.4,0.3,0.7,0.4v0
		L0.1,44.1"/>
	<path class="st0" d="M17.8,46c-0.8,0.6-1.6,1.3-2.4,1.9l-0.6,0.5l-0.6,0.5c-0.4,0.3-0.8,0.6-1.2,0.9l-1.2,0.9l-0.1,0.1l0.1,0.1
		c0.4,0.3,0.8,0.6,1.2,0.9c0.4,0.3,0.8,0.6,1.2,0.9l0.6,0.5l0.6,0.5c0.8,0.6,1.6,1.2,2.4,1.9c0.4,0.3,0.8,0.6,1.2,0.9l0.6,0.5
		c0.2,0.2,0.4,0.3,0.6,0.5V44.1c-0.2,0.2-0.4,0.3-0.6,0.5L19,45C18.6,45.3,18.2,45.7,17.8,46z"/>
	<path class="st0" d="M2.5,46c0.8,0.6,1.6,1.3,2.4,1.9l0.6,0.5l0.6,0.5c0.4,0.3,0.8,0.6,1.2,0.9l1.2,0.9l0.1,0.1l-0.1,0.1
		c-0.4,0.3-0.8,0.6-1.2,0.9c-0.4,0.3-0.8,0.6-1.2,0.9L5.6,53L5,53.4c-0.8,0.6-1.6,1.2-2.4,1.9c-0.4,0.3-0.8,0.6-1.2,0.9l-0.6,0.5
		c-0.2,0.2-0.4,0.3-0.6,0.5V44.1c0.2,0.2,0.4,0.3,0.6,0.5L1.3,45C1.7,45.3,2.1,45.7,2.5,46z"/>
</g>
<path class="st0" d="M10,76C4.5,76,0,80.5,0,86c0,5.5,4.5,10,10,10s10-4.5,10-10C20,80.5,15.5,76,10,76z M10.9,80.8l-0.3,6.8H8.8
	l-0.3-6.8H10.9z M9.7,91.1L9.7,91.1c-0.8,0-1.3-0.6-1.3-1.4c0-0.8,0.6-1.4,1.3-1.4s1.3,0.6,1.3,1.4C11,90.5,10.5,91.1,9.7,91.1z"/>
<g>
	<polygon class="st0" points="0,0 20,10 0,8 	"/>
	<polygon class="st0" points="0,20 20,10 0,12 	"/>
</g>
<rect x="0.3" y="116" class="st0" width="20" height="3"/>
<path class="st0" d="M14.3,116h-1.6c0-1.3-1.1-2.4-2.4-2.4s-2.4,1.1-2.4,2.4H6.3c0-2.2,1.8-4,4-4S14.3,113.8,14.3,116z"/>
<path class="st0" d="M2.3,119v15h16v-15H2.3z M6.8,131H5.3v-10h1.5V131z M11,131H9.5v-10H11V131z M15.3,131h-1.5v-10h1.5V131z"/>
</svg>
