<?xml version="1.0" encoding="utf-8"?>
<!-- Generator: Adobe Illustrator 24.1.3, SVG Export Plug-In . SVG Version: 6.00 Build 0)  -->
<svg version="1.1" id="Layer_1" xmlns="http://www.w3.org/2000/svg" xmlns:xlink="http://www.w3.org/1999/xlink" x="0px" y="0px"
	 viewBox="0 0 109.4 334.2" style="enable-background:new 0 0 109.4 334.2;" xml:space="preserve">
<style type="text/css">
	.st0{clip-path:url(#SVGID_2_);}
	.st1{fill:#004F79;}
	.st2{clip-path:url(#SVGID_4_);}
	.st3{clip-path:url(#SVGID_6_);}
	.st4{fill:url(#Rectangle_105_1_);}
	.st5{clip-path:url(#SVGID_8_);}
	.st6{clip-path:url(#SVGID_10_);}
	.st7{clip-path:url(#SVGID_12_);}
	.st8{fill:url(#Rectangle_105-2_1_);}
	.st9{clip-path:url(#SVGID_14_);}
	.st10{clip-path:url(#SVGID_16_);}
	.st11{clip-path:url(#SVGID_18_);}
	.st12{fill:url(#Rectangle_105-3_1_);}
</style>
<g id="Group_402" transform="translate(0 247.182)">
	<g id="Group_173" transform="translate(0 -0.004)">
		<g>
			<defs>
				<rect id="SVGID_1_" y="0" width="109.4" height="85.9"/>
			</defs>
			<clipPath id="SVGID_2_">
				<use xlink:href="#SVGID_1_"  style="overflow:visible;"/>
			</clipPath>
			<g id="Mask_Group_1" transform="translate(0 0)" class="st0">
				<path id="Path_189" class="st1" d="M6.6,0C3,0,0.1,2.9,0.1,6.5c0,0,0,0,0,0V58c0,3.6,2.9,6.5,6.5,6.5c0,0,0,0,0,0h28.7v0h3.2
					c3.3,0,7,2.4,9,5.5h55.4c3.6,0,6.5-2.9,6.5-6.5c0,0,0,0,0,0V37.9H75.8c-1.7,0-3-2.5-3-5.7V11.8H51c-1.7,0-4.5-2-6.5-4.4
					l-1.4-1.8C39.6-0.4,38.3,0,30,0H6.6z"/>
				<path id="Path_190" class="st1" d="M5,11.9h99.4c2.7,0,4.9,2.2,4.9,4.9c0,0,0,0,0,0V81c0,2.7-2.2,4.9-4.9,4.9c0,0,0,0,0,0H5
					c-2.7,0-4.9-2.2-4.9-4.9c0,0,0,0,0,0V16.8C0.1,14.1,2.2,11.9,5,11.9C4.9,11.9,4.9,11.9,5,11.9"/>
			</g>
		</g>
	</g>
	<g id="Group_177" transform="translate(0.052 13.834)">
		<g>
			<defs>
				<path id="SVGID_3_" d="M47.3,0c-1.9,3.3-5.7,5.8-9,5.8h-3.2v0H6.5C2.8,5.9-0.1,8.9,0,12.6c0,0,0,0,0,0v53.8
					c-0.1,3.7,2.8,6.7,6.5,6.8c0,0,0,0,0,0h96.2c3.7-0.1,6.6-3.1,6.5-6.8c0,0,0,0,0,0V6.8c0.1-3.7-2.8-6.7-6.5-6.8c0,0,0,0,0,0
					L47.3,0z"/>
			</defs>
			<clipPath id="SVGID_4_">
				<use xlink:href="#SVGID_3_"  style="overflow:visible;"/>
			</clipPath>
			<g id="Group_176" class="st2">
				<g id="Group_175" transform="translate(-0.052 -0.037)">
					<g>
						<defs>
							<rect id="SVGID_5_" y="0" width="109.4" height="73.3"/>
						</defs>
						<clipPath id="SVGID_6_">
							<use xlink:href="#SVGID_5_"  style="overflow:visible;"/>
						</clipPath>
						<g id="Group_174" class="st3">
							<linearGradient id="Rectangle_105_1_" gradientUnits="userSpaceOnUse" x1="0" y1="36.6485" x2="109.386" y2="36.6485">
								<stop  offset="0" style="stop-color:#246C92"/>
								<stop  offset="1" style="stop-color:#397EA3"/>
							</linearGradient>
							<rect id="Rectangle_105" y="0" class="st4" width="109.4" height="73.3"/>
						</g>
					</g>
				</g>
			</g>
		</g>
	</g>
</g>
<g id="Group_403" transform="translate(0 123.593)">
	<g id="Group_173-2" transform="translate(0 -0.004)">
		<g>
			<defs>
				<rect id="SVGID_7_" y="0" width="109.4" height="85.9"/>
			</defs>
			<clipPath id="SVGID_8_">
				<use xlink:href="#SVGID_7_"  style="overflow:visible;"/>
			</clipPath>
			<g id="Mask_Group_1-2" transform="translate(0 0)" class="st5">
				<path id="Path_189-2" class="st1" d="M6.6,0C3,0,0.1,2.9,0.1,6.5c0,0,0,0,0,0V58c0,3.6,2.9,6.5,6.5,6.5c0,0,0,0,0,0h28.7v0h3.2
					c3.3,0,7,2.4,9,5.5h55.4c3.6,0,6.5-2.9,6.5-6.5c0,0,0,0,0,0V37.9H75.8c-1.7,0-3-2.5-3-5.7V11.8H51c-1.7,0-4.5-2-6.5-4.4
					l-1.4-1.8C39.6-0.4,38.3,0,30,0H6.6z"/>
				<path id="Path_190-2" class="st1" d="M5,11.9h99.4c2.7,0,4.9,2.2,4.9,4.9c0,0,0,0,0,0V81c0,2.7-2.2,4.9-4.9,4.9c0,0,0,0,0,0H5
					c-2.7,0-4.9-2.2-4.9-4.9c0,0,0,0,0,0V16.8C0.1,14.1,2.2,11.9,5,11.9C4.9,11.9,4.9,11.9,5,11.9"/>
			</g>
		</g>
	</g>
	<g id="Group_177-2" transform="translate(0.052 13.834)">
		<g>
			<defs>
				<path id="SVGID_9_" d="M47.3,0c-1.9,3.3-5.7,5.8-9,5.8h-3.2v0H6.5C2.8,5.9-0.1,8.9,0,12.6c0,0,0,0,0,0v53.8
					c-0.1,3.7,2.8,6.7,6.5,6.8c0,0,0,0,0,0h96.2c3.7-0.1,6.6-3.1,6.5-6.8c0,0,0,0,0,0V6.8c0.1-3.7-2.8-6.7-6.5-6.8c0,0,0,0,0,0
					L47.3,0z"/>
			</defs>
			<clipPath id="SVGID_10_">
				<use xlink:href="#SVGID_9_"  style="overflow:visible;"/>
			</clipPath>
			<g id="Group_176-2" class="st6">
				<g id="Group_175-2" transform="translate(-0.052 -0.037)">
					<g>
						<defs>
							<rect id="SVGID_11_" y="0" width="109.4" height="73.3"/>
						</defs>
						<clipPath id="SVGID_12_">
							<use xlink:href="#SVGID_11_"  style="overflow:visible;"/>
						</clipPath>
						<g id="Group_174-2" class="st7">
							<linearGradient id="Rectangle_105-2_1_" gradientUnits="userSpaceOnUse" x1="0" y1="36.6485" x2="109.386" y2="36.6485">
								<stop  offset="0" style="stop-color:#246C92"/>
								<stop  offset="1" style="stop-color:#397EA3"/>
							</linearGradient>
							<rect id="Rectangle_105-2" y="0" class="st8" width="109.4" height="73.3"/>
						</g>
					</g>
				</g>
			</g>
		</g>
	</g>
</g>
<g id="Group_404" transform="translate(0 0.004)">
	<g id="Group_173-3" transform="translate(0 -0.004)">
		<g>
			<defs>
				<rect id="SVGID_13_" width="109.4" height="85.9"/>
			</defs>
			<clipPath id="SVGID_14_">
				<use xlink:href="#SVGID_13_"  style="overflow:visible;"/>
			</clipPath>
			<g id="Mask_Group_1-3" transform="translate(0 0)" class="st9">
				<path id="Path_189-3" class="st1" d="M6.6,0C3,0,0.1,2.9,0.1,6.5c0,0,0,0,0,0V58c0,3.6,2.9,6.5,6.5,6.5c0,0,0,0,0,0h28.7v0h3.2
					c3.3,0,7,2.4,9,5.5h55.4c3.6,0,6.5-2.9,6.5-6.5c0,0,0,0,0,0V37.9H75.8c-1.7,0-3-2.5-3-5.7V11.8H51c-1.7,0-4.5-2-6.5-4.4
					l-1.4-1.8C39.6-0.4,38.3,0,30,0H6.6z"/>
				<path id="Path_190-3" class="st1" d="M5,11.9h99.4c2.7,0,4.9,2.2,4.9,4.9c0,0,0,0,0,0V81c0,2.7-2.2,4.9-4.9,4.9c0,0,0,0,0,0H5
					c-2.7,0-4.9-2.2-4.9-4.9c0,0,0,0,0,0V16.8C0.1,14.1,2.2,11.9,5,11.9C4.9,11.9,4.9,11.9,5,11.9"/>
			</g>
		</g>
	</g>
	<g id="Group_177-3" transform="translate(0.052 13.834)">
		<g>
			<defs>
				<path id="SVGID_15_" d="M47.3,0c-1.9,3.3-5.7,5.8-9,5.8h-3.2v0H6.5C2.8,5.9-0.1,8.9,0,12.6c0,0,0,0,0,0v53.8
					c-0.1,3.7,2.8,6.7,6.5,6.8c0,0,0,0,0,0h96.2c3.7-0.1,6.6-3.1,6.5-6.8c0,0,0,0,0,0V6.8c0.1-3.7-2.8-6.7-6.5-6.8c0,0,0,0,0,0
					L47.3,0z"/>
			</defs>
			<clipPath id="SVGID_16_">
				<use xlink:href="#SVGID_15_"  style="overflow:visible;"/>
			</clipPath>
			<g id="Group_176-3" class="st10">
				<g id="Group_175-3" transform="translate(-0.052 -0.037)">
					<g>
						<defs>
							<rect id="SVGID_17_" y="0" width="109.4" height="73.3"/>
						</defs>
						<clipPath id="SVGID_18_">
							<use xlink:href="#SVGID_17_"  style="overflow:visible;"/>
						</clipPath>
						<g id="Group_174-3" class="st11">
							
								<linearGradient id="Rectangle_105-3_1_" gradientUnits="userSpaceOnUse" x1="9.0223" y1="-9.0223" x2="100.3638" y2="82.3192">
								<stop  offset="0" style="stop-color:#246C92"/>
								<stop  offset="1" style="stop-color:#397EA3"/>
							</linearGradient>
							<rect id="Rectangle_105-3" y="0" class="st12" width="109.4" height="73.3"/>
						</g>
					</g>
				</g>
			</g>
		</g>
	</g>
</g>
</svg>
