<?xml version="1.0" encoding="utf-8"?>
<!-- Generator: Adobe Illustrator 24.1.3, SVG Export Plug-In . SVG Version: 6.00 Build 0)  -->
<svg version="1.1" id="Layer_1" xmlns="http://www.w3.org/2000/svg" xmlns:xlink="http://www.w3.org/1999/xlink" x="0px" y="0px"
	 viewBox="0 0 588.4 611.4" style="enable-background:new 0 0 588.4 611.4;" xml:space="preserve">
<style type="text/css">
	.st0{fill:#373F51;}
</style>
<path class="st0" d="M199.9,611.4c-51.2,0-102.4-19.5-141.4-58.5c-78-78-78-204.9,0-282.8L286.3,42.2c56.3-56.3,148-56.3,204.3,0
	c56.3,56.3,56.3,148,0,204.3L263.1,474c-16.8,16.8-39.1,26-62.9,26c-23.7,0-46.1-9.2-62.9-26c-16.8-16.8-26-39.1-26-62.9
	c0-23.7,9.2-46.1,26-62.9l207.4-207.4c13-13,34.1-13,47.1,0c13,13,13,34.1,0,47.1L184.6,395.4c-4.2,4.2-6.5,9.8-6.5,15.7
	c0,5.9,2.3,11.5,6.5,15.7c4.2,4.2,9.8,6.5,15.7,6.5c5.9,0,11.5-2.3,15.7-6.5l227.5-227.5c30.3-30.3,30.3-79.7,0-110
	c-30.3-30.3-79.7-30.3-110,0L105.6,317.2c-52,52-52,136.6,0,188.6c52,52,136.6,52,188.6,0l237.3-237.3c13-13,34.1-13,47.1,0
	c13,13,13,34.1,0,47.1L341.3,552.9C302.3,591.9,251.1,611.4,199.9,611.4z"/>
</svg>
