<?xml version="1.0" encoding="utf-8"?>
<!-- Generator: Adobe Illustrator 24.1.3, SVG Export Plug-In . SVG Version: 6.00 Build 0)  -->
<svg version="1.1" id="Layer_1" xmlns="http://www.w3.org/2000/svg" xmlns:xlink="http://www.w3.org/1999/xlink" x="0px" y="0px"
	 viewBox="0 0 85 18.7" style="enable-background:new 0 0 85 18.7;" xml:space="preserve">
<style type="text/css">
	.st0{fill:#FF0000;}
	.st1{fill:#FF9D00;}
	.st2{fill:#00FF3A;}
</style>
<g id="Group_168" transform="translate(-39.998 -23.892)">
	<path id="Path_5" class="st0" d="M58.7,33.2c0,5.2-4.2,9.4-9.4,9.4c-5.2,0-9.4-4.2-9.4-9.4s4.2-9.4,9.4-9.4S58.7,28.1,58.7,33.2
		L58.7,33.2"/>
	<path id="Path_8" class="st1" d="M92.4,33.2c0,5.2-4.2,9.4-9.4,9.4s-9.4-4.2-9.4-9.4s4.2-9.4,9.4-9.4S92.4,28.1,92.4,33.2
		L92.4,33.2"/>
	<path id="Path_11" class="st2" d="M125,33.2c0,5.2-4.2,9.4-9.4,9.4s-9.4-4.2-9.4-9.4c0-5.2,4.2-9.4,9.4-9.4l0,0
		C120.8,23.9,125,28.1,125,33.2"/>
</g>
</svg>
